<svg width="15" height="15" viewBox="0 0 15 15" fill="none" xmlns="http://www.w3.org/2000/svg">
<g clip-path="url(#clip0_504_742)">
<path d="M10.3125 1.875C9.225 1.875 8.18125 2.38125 7.5 3.18125C6.81875 2.38125 5.775 1.875 4.6875 1.875C2.7625 1.875 1.25 3.3875 1.25 5.3125C1.25 7.675 3.375 9.6 6.59375 12.525L7.5 13.3438L8.40625 12.5188C11.625 9.6 13.75 7.675 13.75 5.3125C13.75 3.3875 12.2375 1.875 10.3125 1.875ZM7.5625 11.5937L7.5 11.6562L7.4375 11.5937C4.4625 8.9 2.5 7.11875 2.5 5.3125C2.5 4.0625 3.4375 3.125 4.6875 3.125C5.65 3.125 6.5875 3.74375 6.91875 4.6H8.0875C8.4125 3.74375 9.35 3.125 10.3125 3.125C11.5625 3.125 12.5 4.0625 12.5 5.3125C12.5 7.11875 10.5375 8.9 7.5625 11.5937Z" fill="#8364E8"/>
</g>
<defs>
<clipPath id="clip0_504_742">
<rect width="15" height="15" fill="white"/>
</clipPath>
</defs>
</svg>
